<?xml version="1.0" encoding="UTF-8" standalone="no"?>
<!-- Created with Inkscape (http://www.inkscape.org/) -->

<svg
   width="164.94836mm"
   height="164.94836mm"
   viewBox="0 0 164.94836 164.94836"
   version="1.1"
   id="svg5"
   xml:space="preserve"
   xmlns="http://www.w3.org/2000/svg"
   xmlns:svg="http://www.w3.org/2000/svg"><defs
     id="defs2"><filter
       style="color-interpolation-filters:sRGB"
       id="filter4478"
       x="-0.071138748"
       y="-0.053835876"
       width="1.1206287"
       height="1.1170844"><feFlood
         flood-opacity="0.854902"
         flood-color="rgb(159,118,209)"
         result="flood"
         id="feFlood4468" /><feComposite
         in="SourceGraphic"
         in2="flood"
         operator="in"
         result="composite1"
         id="feComposite4470" /><feGaussianBlur
         in="composite1"
         stdDeviation="1.7"
         result="blur"
         id="feGaussianBlur4472" /><feOffset
         dx="-2.36593"
         dy="1.73502"
         result="offset"
         id="feOffset4474" /><feComposite
         in="SourceGraphic"
         in2="offset"
         operator="over"
         result="composite2"
         id="feComposite4476" /></filter></defs><g
     id="layer1"
     transform="translate(-24.30953,-43.86932)"><rect
       style="display:none;fill:#f0f1f3;fill-opacity:1;stroke-width:0.285371"
       id="rect788"
       width="164.94836"
       height="164.94836"
       x="24.30953"
       y="43.86932" /><rect
       style="display:none;fill:#1e1e1e;fill-opacity:1;stroke-width:0.285371"
       id="rect302"
       width="164.94836"
       height="164.94836"
       x="24.30953"
       y="43.86932" /><path
       id="path2623"
       style="display:inline;fill:none;fill-opacity:1;stroke:#34af99;stroke-width:1.514;stroke-dasharray:none;stroke-opacity:1;filter:url(#filter4478)"
       d="m 106.38862,74.76806 -27.053658,47.31029 -27.053128,47.31029 17.735352,-0.0739 6.736539,-11.78068 -4.165637,0.0175 16.949353,-29.64005 16.949359,-29.639528 17.19379,29.497928 17.19481,29.49846 -4.42298,0.0181 6.83421,11.72435 17.99269,-0.0749 -27.44535,-47.08446 z m 0,36.34558 -27.053658,47.31029 -11.58017,20.25199 H 81.29195 l 8.245491,-14.41824 16.949359,-29.64004 17.19379,29.49845 8.48682,14.55983 h 13.6033 l -11.93674,-20.47833 z m 9.35706,46.25919 -9.01341,0.0372 -9.373592,0.0387 -6.736549,11.78016 16.158201,-0.0662 15.80006,-0.0662 z" /></g></svg>
